PathFileType   4   (X/Y/Z)
DataRate	CameraRate	NumFrames	NumMarkers	Units	OrigDataRate	OrigDataStartFrame	OrigNumFrames
120.0	120.0	7	37	mm	120.0	55	81
Frame#	Time	midhip	hip_r	hip_l	knee_r	knee_l	ankle_r	ankle_l	midasis	asis_r	asis_l	psis_r	psis_l	epicondLat_r	epicondLat_l	epicondMed_r	epicondMed_l	malleolusLat_r	malleolusLat_l	malleolusMedv_r	malleolusMedv_l	neck	subclavicle_r	subclavicle_l	sternalnotch	xyphoidprocess	thighwand_r	thighwand_l	upperleg1_r	upperleg1_l	upperleg2_r	upperleg2_l	shankwand_r	shankwand_l	lowerleg1_r	lowerleg1_l	toe_r	toe_l
 	 	X1	Y1	Z1	X2	Y2	Z2	X3	Y3	Z3	X4	Y4	Z4	X5	Y5	Z5	X6	Y6	Z6	X7	Y7	Z7	X8	Y8	Z8	X9	Y9	Z9	X10	Y10	Z10	X11	Y11	Z11	X12	Y12	Z12	X13	Y13	Z13	X14	Y14	Z14	X15	Y15	Z15	X16	Y16	Z16	X17	Y17	Z17	X18	Y18	Z18	X19	Y19	Z19	X20	Y20	Z20	X21	Y21	Z21	X22	Y22	Z22	X23	Y23	Z23	X24	Y24	Z24	X25	Y25	Z25	X26	Y26	Z26	X27	Y27	Z27	X28	Y28	Z28	X29	Y29	Z29	X30	Y30	Z30	X31	Y31	Z31	X32	Y32	Z32	X33	Y33	Z33	X34	Y34	Z34	X35	Y35	Z35	X36	Y36	Z36	X37	Y37	Z37

	55	0.51667	1391.903	839.960	-230.780	1391.458	830.610	-172.087	1388.115	813.907	-288.317	1396.953	458.352	-186.086	1503.525	453.104	-301.636	1363.618	65.608	-212.721	1202.558	209.096	-311.111	1456.560	896.346	-236.747	1450.857	910.277	-137.228	1462.262	882.415	-336.265	1301.527	941.633	-225.767	1305.334	932.762	-279.551	1406.613	456.460	-131.974	1514.648	458.621	-354.703	1383.723	457.826	-230.190	1506.705	438.116	-253.724	1353.122	63.990	-175.715	1205.333	207.162	-349.462	1383.159	77.490	-239.519	1223.638	202.884	-285.175	1356.190	1343.623	-224.510	1445.044	1251.340	-190.419	1441.840	1262.194	-294.367	1430.604	1269.698	-245.703	1457.421	1097.945	-263.563	1532.648	635.650	-182.483	1589.455	650.096	-270.352	1459.140	680.697	-129.250	1517.908	671.374	-338.264	1452.471	595.215	-132.285	1543.142	587.794	-332.147	1356.417	176.666	-96.837	1275.157	309.339	-406.873	1361.736	186.301	-136.790	1284.293	306.339	-363.963	1473.332	39.405	-168.274	1280.359	112.492	-340.694
	56	0.52500	1407.298	841.709	-229.641	1405.520	831.701	-171.593	1404.360	815.544	-287.943	1397.991	459.202	-185.947	1530.232	457.450	-299.230	1364.292	66.088	-212.912	1241.884	198.492	-308.064	1471.928	897.641	-234.699	1464.366	911.101	-135.359	1479.489	884.181	-334.038	1316.607	943.135	-227.127	1321.883	934.269	-280.797	1406.669	456.936	-131.683	1541.927	463.229	-352.146	1383.068	459.621	-229.754	1534.329	443.289	-251.521	1352.979	64.536	-176.144	1245.007	196.322	-346.376	1383.289	78.234	-239.541	1263.035	194.037	-281.768	1372.638	1344.965	-224.722	1461.509	1253.537	-189.639	1459.194	1263.808	-293.400	1447.392	1271.409	-245.047	1475.381	1099.821	-261.732	1539.337	631.179	-179.878	1610.065	657.119	-267.007	1466.868	678.839	-127.420	1538.918	676.805	-335.845	1456.394	593.733	-130.644	1566.871	594.221	-329.331	1354.792	177.481	-97.187	1310.347	301.726	-404.640	1360.633	187.069	-137.071	1319.250	299.139	-361.880	1473.215	39.412	-167.887	1325.384	106.922	-333.951
	57	0.53333	1422.796	842.863	-229.078	1419.559	832.270	-171.210	1420.630	816.717	-287.643	1399.386	460.041	-186.046	1556.112	461.433	-297.047	1365.102	66.665	-213.348	1281.906	187.266	-305.250	1487.154	898.540	-232.688	1477.697	911.471	-133.540	1496.611	885.608	-331.836	1331.567	944.018	-228.602	1338.250	935.199	-282.110	1406.965	457.461	-131.632	1568.483	467.546	-349.771	1383.925	460.229	-228.362	1560.297	447.969	-249.758	1352.951	65.190	-176.846	1285.727	184.588	-343.466	1383.916	79.250	-239.765	1302.975	184.453	-278.481	1389.254	1345.970	-224.926	1478.191	1255.344	-188.935	1476.588	1264.768	-292.479	1464.291	1272.621	-244.376	1493.279	1101.122	-259.566	1546.041	626.737	-177.205	1630.002	663.443	-263.538	1474.084	676.785	-126.001	1559.505	681.723	-333.452	1460.502	592.317	-128.839	1589.741	600.044	-326.630	1353.290	178.407	-97.822	1346.497	292.583	-402.968	1359.736	188.075	-137.464	1354.971	290.434	-360.475	1473.156	39.416	-167.588	1371.175	100.904	-327.073
	58	0.54167	1438.073	843.562	-228.257	1433.560	832.357	-170.914	1436.895	817.418	-287.385	1401.292	460.846	-186.382	1581.151	464.986	-295.030	1366.022	67.343	-214.054	1322.629	175.617	-302.703	1502.248	899.024	-230.729	1490.873	911.415	-131.791	1513.622	886.634	-329.668	1346.475	944.339	-230.199	1354.447	935.583	-283.514	1407.727	458.017	-131.833	1594.278	471.498	-347.523	1386.475	460.716	-228.532	1584.758	451.746	-248.970	1353.040	65.959	-177.835	1327.461	172.309	-340.755	1384.787	80.109	-240.232	1343.406	174.356	-275.359	1406.115	1346.622	-225.088	1494.832	1256.510	-188.079	1493.982	1265.016	-291.520	1481.260	1273.299	-243.701	1510.620	1101.691	-257.160	1552.868	622.470	-174.616	1649.273	668.942	-259.965	1480.769	674.912	-124.933	1579.704	685.942	-331.123	1464.671	590.882	-127.747	1611.807	605.098	-324.267	1352.020	179.437	-98.752	1383.537	282.332	-401.720	1358.894	189.214	-138.066	1391.329	280.642	-359.499	1473.155	39.417	-167.399	1417.644	94.738	-320.394
	59	0.55000	1453.290	843.661	-227.956	1447.504	832.015	-170.698	1453.116	817.660	-287.154	1403.859	461.595	-186.962	1605.323	468.076	-293.111	1367.026	68.119	-215.045	1364.107	163.708	-300.453	1517.214	899.097	-228.845	1503.916	910.969	-130.140	1530.512	887.224	-327.550	1361.365	944.182	-231.898	1370.491	935.472	-285.025	1409.159	458.571	-132.302	1619.274	475.040	-345.333	1390.356	461.462	-230.073	1608.196	454.657	-248.453	1353.245	66.845	-179.119	1370.158	159.824	-338.276	1385.693	80.602	-240.979	1384.488	164.034	-272.484	1422.971	1346.813	-225.126	1511.607	1257.113	-187.273	1511.328	1264.692	-290.539	1498.265	1273.434	-243.036	1527.933	1101.701	-254.778	1559.937	618.477	-172.238	1667.873	673.530	-256.295	1487.559	673.404	-124.158	1599.489	689.403	-328.764	1469.255	589.480	-127.357	1633.274	609.200	-321.936	1351.082	180.557	-99.986	1421.282	271.479	-400.739	1358.303	190.404	-138.924	1428.535	270.220	-358.789	1473.214	39.419	-167.342	1464.687	88.677	-314.220
	60	0.55833	1468.377	843.208	-228.168	1461.385	831.304	-170.567	1469.263	817.479	-286.956	1407.211	462.267	-187.800	1628.583	470.698	-291.231	1368.094	68.987	-216.324	1406.418	151.701	-298.512	1532.063	898.779	-227.066	1516.853	910.181	-128.621	1547.273	887.376	-325.511	1376.272	943.630	-233.668	1386.400	934.933	-286.643	1411.416	459.093	-133.053	1643.429	478.158	-343.137	1394.936	462.024	-230.936	1630.941	456.901	-247.581	1353.562	67.847	-180.691	1413.744	147.457	-336.070	1387.216	81.382	-242.006	1426.711	153.552	-270.030	1439.717	1346.611	-225.030	1528.345	1257.162	-186.488	1528.602	1263.872	-289.619	1515.277	1273.051	-242.381	1545.097	1101.198	-252.517	1567.366	614.799	-170.145	1685.776	677.161	-252.508	1494.877	672.034	-123.609	1618.835	692.054	-326.407	1474.621	588.450	-126.942	1654.249	612.447	-319.405	1350.550	181.755	-101.532	1459.446	260.550	-399.874	1358.260	191.585	-140.295	1466.670	259.674	-357.978	1473.339	39.425	-167.437	1512.185	82.929	-308.797
	61	0.56667	1483.379	842.365	-228.692	1475.222	830.289	-170.526	1485.329	816.928	-286.797	1411.423	462.851	-188.898	1650.869	472.857	-289.353	1369.210	69.935	-217.872	1449.621	139.793	-296.862	1546.822	898.117	-225.418	1529.732	909.108	-127.257	1563.913	887.125	-323.579	1391.208	942.764	-235.464	1402.203	934.042	-288.348	1414.586	459.561	-134.088	1666.696	480.854	-340.887	1400.030	462.971	-232.386	1652.854	458.527	-246.627	1353.984	68.964	-182.525	1458.103	135.509	-334.171	1388.899	82.542	-243.445	1469.896	142.840	-268.019	1456.275	1346.031	-224.877	1544.982	1256.603	-185.712	1545.843	1262.521	-288.754	1532.276	1272.201	-241.739	1562.106	1100.136	-250.388	1575.244	611.424	-168.365	1702.941	679.829	-248.569	1502.769	670.533	-123.144	1637.644	693.933	-324.113	1480.645	587.619	-126.854	1674.567	615.071	-316.787	1350.470	183.028	-103.382	1497.675	250.009	-399.004	1358.898	192.690	-142.239	1505.289	249.462	-356.891	1473.533	39.445	-167.696	1560.011	77.673	-304.284
